<?xml version="1.0" encoding="UTF-8" standalone="no"?>
<!-- Created with Inkscape (http://www.inkscape.org/) -->

<svg
   width="188.01068mm"
   height="182.00897mm"
   viewBox="0 0 188.01068 182.00897"
   version="1.1"
   id="svg1"
   xmlns:inkscape="http://www.inkscape.org/namespaces/inkscape"
   xmlns:sodipodi="http://sodipodi.sourceforge.net/DTD/sodipodi-0.dtd"
   xmlns="http://www.w3.org/2000/svg"
   xmlns:svg="http://www.w3.org/2000/svg">
  <sodipodi:namedview
     id="namedview1"
     pagecolor="#ffffff"
     bordercolor="#000000"
     borderopacity="0.25"
     inkscape:showpageshadow="2"
     inkscape:pageopacity="0.0"
     inkscape:pagecheckerboard="0"
     inkscape:deskcolor="#d1d1d1"
     inkscape:document-units="mm">
    <inkscape:page
       x="0"
       y="-2.49239e-14"
       width="188.01068"
       height="182.00899"
       id="page2"
       margin="0"
       bleed="0" />
  </sodipodi:namedview>
  <defs
     id="defs1" />
  <g
     inkscape:label="Layer 1"
     inkscape:groupmode="layer"
     id="layer1"
     transform="translate(-11.824,-53.037248)">
    <text
       xml:space="preserve"
       style="font-size:50.8px;font-family:Calibri;-inkscape-font-specification:Calibri;text-align:start;writing-mode:lr-tb;direction:ltr;text-anchor:start;fill:#50554a;fill-opacity:1;stroke-width:0.264583"
       x="19.596399"
       y="230.57584"
       id="text1"
       inkscape:export-filename="moments_text.svg"
       inkscape:export-xdpi="96"
       inkscape:export-ydpi="96"><tspan
         sodipodi:role="line"
         id="tspan1"
         style="font-style:normal;font-variant:normal;font-weight:bold;font-stretch:normal;font-size:50.8px;font-family:'FONTSPRING DEMO - Blue Vinyl';-inkscape-font-specification:'FONTSPRING DEMO - Blue Vinyl Bold';fill:#50554a;fill-opacity:1;stroke-width:0.264583"
         x="19.596399"
         y="230.57584">Moments</tspan></text>
    <path
       style="fill:#7f593b;fill-opacity:1;stroke-width:0.0830564"
       d="m 89.42402,164.86293 c -8.902851,-8.91651 -16.607405,-16.65766 -17.121242,-17.20255 -0.980507,-1.03977 -2.084851,-2.37481 -2.830981,-3.42237 -0.243629,-0.34206 -0.642301,-0.88232 -0.885939,-1.20058 -0.640199,-0.83629 -0.850897,-1.15026 -1.337409,-1.99291 -0.238953,-0.41388 -0.544908,-0.93714 -0.679892,-1.16279 -0.603214,-1.00838 -1.100739,-1.9801 -1.93946,-3.78792 -0.240191,-0.51772 -0.556977,-1.19119 -0.703979,-1.49661 -0.147001,-0.30541 -0.267276,-0.61886 -0.267276,-0.69655 0,-0.0777 -0.09967,-0.33661 -0.221487,-0.57539 -0.12181,-0.23878 -0.221478,-0.53447 -0.221478,-0.65707 0,-0.12262 -0.09287,-0.43607 -0.206387,-0.69656 -0.385283,-0.88416 -0.912293,-2.58617 -1.141055,-3.68513 -0.0634,-0.30454 -0.205357,-0.85272 -0.315474,-1.21817 -0.110124,-0.36545 -0.233064,-0.96345 -0.273206,-1.3289 -0.04014,-0.36545 -0.141038,-0.93854 -0.224211,-1.27353 -0.247018,-0.99492 -0.637085,-5.56768 -0.637641,-7.47509 0,-0.97453 0.07757,-2.51938 0.173031,-3.433 0.09545,-0.91362 0.205167,-2.03488 0.243805,-2.4917 0.03864,-0.45681 0.137882,-1.07973 0.220531,-1.38427 0.08265,-0.30454 0.185274,-0.90255 0.228048,-1.32891 0.04277,-0.42635 0.146055,-0.90936 0.229519,-1.07336 0.08346,-0.16399 0.1973,-0.61986 0.252981,-1.01304 0.05568,-0.39318 0.153896,-0.81326 0.218248,-0.9335 0.06435,-0.12025 0.188488,-0.53647 0.275847,-0.92494 0.175482,-0.78029 0.438389,-1.57452 0.75103,-2.26884 0.112716,-0.2503 0.204934,-0.53883 0.204934,-0.64118 0,-0.10234 0.09967,-0.38144 0.221478,-0.62022 0.121819,-0.23878 0.22167,-0.52334 0.221902,-0.63236 0,-0.10901 0.09367,-0.351135 0.20765,-0.538055 0.113979,-0.18691 0.243115,-0.461 0.286969,-0.60908 0.149127,-0.50357 1.402749,-3.10552 1.890465,-3.92372 0.145216,-0.24364 0.367426,-0.61739 0.493796,-0.83057 0.126362,-0.21318 0.349161,-0.58693 0.495108,-0.83056 0.145955,-0.24364 0.368862,-0.61739 0.495366,-0.83057 0.365224,-0.61547 0.457242,-0.75151 1.335108,-1.97384 0.456811,-0.63605 0.970573,-1.35528 1.141703,-1.59827 0.276404,-0.392475 2.309668,-2.745427 3.059029,-3.539985 0.15637,-0.165805 0.337492,-0.302848 0.402475,-0.30454 0.190714,-0.005 2.373531,2.1974 2.373531,2.394782 0,0.157607 -0.554012,0.847499 -1.582775,1.970963 -0.170083,0.18574 -0.593671,0.70568 -0.941304,1.15542 -0.347633,0.44975 -0.907492,1.17234 -1.244128,1.60576 -0.626728,0.80693 -1.504054,2.12087 -1.746247,2.61529 -0.07458,0.15227 -0.35833,0.6257 -0.63054,1.05205 -0.272201,0.42636 -0.594992,0.97453 -0.717309,1.21817 -0.122317,0.24363 -0.269327,0.51771 -0.326694,0.60908 -0.05736,0.0914 -0.202002,0.39036 -0.321421,0.66445 -0.11941,0.27408 -0.443015,0.97706 -0.719103,1.562165 -0.276096,0.58511 -0.557027,1.26822 -0.624294,1.51803 -0.06727,0.24981 -0.166445,0.48148 -0.220399,0.51483 -0.05395,0.0333 -0.13299,0.27216 -0.175648,0.5307 -0.04265,0.25854 -0.145556,0.59466 -0.228671,0.74693 -0.253272,0.46398 -0.608006,1.56845 -0.729136,2.27021 -0.06309,0.36545 -0.177724,0.78903 -0.254751,0.9413 -0.07703,0.15227 -0.174219,0.52603 -0.21598,0.83057 -0.04176,0.30454 -0.172816,0.84045 -0.291229,1.19092 -0.118422,0.35046 -0.215308,0.8867 -0.215308,1.19165 0,0.30494 -0.107624,1.01487 -0.239161,1.57763 -0.225075,0.9629 -0.239128,1.29722 -0.23863,5.67435 8.16e-4,4.04628 0.02507,4.73758 0.18917,5.31562 0.103754,0.36545 0.232907,1.17165 0.287018,1.79155 0.0541,0.6199 0.169494,1.26774 0.256412,1.43965 0.08692,0.1719 0.1902,0.56478 0.229519,0.87307 0.03931,0.30829 0.170672,0.84276 0.29191,1.18771 0.121246,0.34495 0.22044,0.755 0.22044,0.91122 0,0.15622 0.09967,0.4794 0.221487,0.71818 0.121811,0.23878 0.221479,0.51409 0.221479,0.61182 0,0.0977 0.09352,0.41117 0.207823,0.69655 0.114303,0.28538 0.344344,0.89263 0.511213,1.34944 0.166861,0.45681 0.491636,1.22923 0.721728,1.71649 0.230083,0.48727 0.553123,1.18495 0.717857,1.55039 0.504818,1.1199 0.82672,1.74168 1.281396,2.47513 0.239776,0.38679 0.435955,0.72519 0.435955,0.75199 0,0.0268 0.09315,0.18377 0.207002,0.3488 0.113845,0.16503 0.44593,0.67381 0.737957,1.13062 0.292026,0.45681 0.694842,1.03214 0.89515,1.27851 0.200307,0.24637 0.56343,0.7415 0.806943,1.1003 1.186695,1.74848 4.021754,4.68382 18.023518,18.66109 9.575874,9.55912 14.736894,14.63508 14.929534,14.68342 0.16192,0.0406 0.39055,0.0303 0.50806,-0.023 0.11752,-0.0533 2.13462,-2.01543 4.48246,-4.36039 4.01048,-4.00556 4.26686,-4.28516 4.23665,-4.6204 -0.028,-0.31108 -1.89872,-2.2279 -14.5947,-14.95454 -13.612254,-13.6451 -16.625893,-16.71111 -16.879057,-17.17235 -0.0559,-0.10184 -0.392276,-0.54255 -0.747509,-0.97934 -0.355233,-0.43679 -0.645872,-0.8441 -0.645872,-0.90513 0,-0.061 -0.112127,-0.2522 -0.24917,-0.42486 -0.266586,-0.33585 -0.394676,-0.53167 -0.747508,-1.14273 -0.12309,-0.21318 -0.267558,-0.46235 -0.321038,-0.55371 -0.096,-0.16399 -0.368921,-0.7517 -0.951413,-2.04872 -0.164119,-0.36545 -0.36279,-0.78904 -0.441495,-0.94131 -0.0787,-0.15227 -0.180415,-0.45127 -0.226021,-0.66446 -0.04561,-0.21317 -0.175947,-0.56127 -0.289643,-0.77355 -0.113696,-0.21228 -0.20672,-0.49101 -0.20672,-0.61943 0,-0.1284 -0.09967,-0.52316 -0.221478,-0.87722 -0.121819,-0.35406 -0.221487,-0.76701 -0.221487,-0.91764 0,-0.15064 -0.09838,-0.65363 -0.218613,-1.11777 -0.133829,-0.51659 -0.285689,-1.75275 -0.391553,-3.18726 -0.157259,-2.13094 -0.157018,-2.55758 0.0026,-4.70653 0.100764,-1.35657 0.26755,-2.74207 0.391545,-3.25269 0.118812,-0.48924 0.216022,-0.99819 0.216022,-1.13101 0,-0.13281 0.09302,-0.48004 0.206727,-0.77161 0.113705,-0.29156 0.241163,-0.76567 0.283256,-1.05356 0.04209,-0.2879 0.122126,-0.55163 0.177857,-0.58607 0.05573,-0.0344 0.15407,-0.27232 0.21853,-0.52861 0.208613,-0.82943 1.610391,-3.85517 2.163954,-4.67089 0.14956,-0.22039 0.2727,-0.43588 0.27363,-0.47885 0.0024,-0.10986 0.555316,-0.88959 1.714801,-2.418155 1.203239,-1.58623 3.923099,-4.33343 5.41535,-5.46978 0.955324,-0.72748 2.392052,-1.72363 3.182069,-2.20628 0.559419,-0.34177 3.382601,-1.66721 3.551147,-1.66721 0.07109,0 0.331852,-0.0936 0.579485,-0.2081 0.532824,-0.24627 1.38319,-0.54117 2.00064,-0.6938 0.24363,-0.0602 0.74197,-0.20317 1.10742,-0.31764 0.36545,-0.11447 0.96345,-0.23914 1.328904,-0.277045 0.36545,-0.03791 1.0382,-0.150485 1.49501,-0.250174 1.21272,-0.264653 7.01763,-0.248946 8.12705,0.02199 0.80164,0.195773 2.14792,0.270748 2.37223,0.132112 0.0726,-0.04485 0.13195,-0.181408 0.13195,-0.30346 0,-0.146618 -3.55081,-3.774843 -10.46512,-10.69327 -5.755807,-5.759242 -10.465111,-10.517792 -10.465111,-10.574551 0,-0.203758 14.105811,-14.266855 14.310191,-14.266855 0.22749,0 0.22857,0.0011 18.82959,18.565792 7.73437,7.719274 13.17852,13.235358 13.218,13.392662 0.0369,0.147107 0.13003,0.267468 0.20691,0.267468 0.0769,0 0.50753,0.40997 0.95699,0.911046 0.44946,0.501074 1.14112,1.265588 1.53702,1.698918 0.98081,1.073532 2.62624,3.308087 3.82708,5.197347 0.2146,0.33761 0.35475,0.57987 0.73677,1.27353 0.1174,0.21318 0.33255,0.58693 0.47811,0.83057 0.23984,0.40146 0.47018,0.82178 0.78893,1.43964 0.0628,0.12182 0.21464,0.44574 0.33733,0.71983 0.12269,0.27408 0.36083,0.79734 0.5292,1.16279 0.29666,0.64392 0.44058,0.96504 0.93199,2.079375 0.12831,0.29094 0.23328,0.61679 0.23328,0.72409 0,0.10731 0.0968,0.38493 0.21506,0.61694 0.11828,0.23201 0.24829,0.57314 0.28891,0.75808 0.0406,0.18494 0.167,0.54136 0.28085,0.79206 0.11384,0.2507 0.20809,0.59533 0.20942,0.76585 0.001,0.17053 0.0806,0.46125 0.1762,0.64607 0.0956,0.18481 0.22231,0.63749 0.28165,1.00595 0.0593,0.36847 0.17374,0.80033 0.25421,0.9597 0.0805,0.15937 0.18073,0.68319 0.22276,1.16405 0.042,0.48086 0.14846,1.07887 0.2365,1.32891 0.088,0.25003 0.20912,1.15229 0.26907,2.005 0.06,0.85271 0.1673,1.72481 0.23857,1.93798 0.0814,0.24345 0.14702,1.54085 0.17645,3.48838 0.0387,2.55764 0.0158,3.24626 -0.13077,3.93134 -0.0977,0.45681 -0.22566,1.48356 -0.28434,2.28167 -0.0587,0.7981 -0.17609,1.62035 -0.26089,1.82724 -0.0848,0.20688 -0.18941,0.76422 -0.23245,1.23853 -0.043,0.47432 -0.1735,1.13337 -0.28991,1.46457 -0.11641,0.33119 -0.21165,0.73048 -0.21165,0.88729 0,0.15682 -0.0767,0.43339 -0.17038,0.61461 -0.0937,0.18121 -0.22212,0.61478 -0.28535,0.96349 -0.0632,0.3487 -0.18227,0.73885 -0.26453,0.86699 -0.0823,0.12814 -0.18375,0.41523 -0.22553,0.63797 -0.0418,0.22274 -0.17001,0.5894 -0.28492,0.8148 -0.11491,0.22539 -0.21062,0.48648 -0.21269,0.58019 -0.002,0.0937 -0.10004,0.36972 -0.21773,0.61336 -0.11768,0.24362 -0.21565,0.51093 -0.21772,0.594 -0.002,0.0831 -0.10106,0.33223 -0.22,0.5537 -0.11893,0.22147 -0.39937,0.80135 -0.62321,1.28862 -0.59388,1.2928 -1.24268,2.59427 -1.5458,3.10077 -0.14579,0.24364 -0.35398,0.60167 -0.46262,0.79562 -0.96528,1.7233 -1.22528,2.13252 -1.96941,3.0997 -0.24363,0.31666 -0.55711,0.74085 -0.69662,0.94266 -0.78473,1.13508 -1.59527,2.15179 -2.4965,3.13151 -1.08216,1.17642 -1.72549,1.83118 -1.79919,1.83118 -0.10695,0 -2.37203,-2.34107 -2.37203,-2.45161 0,-0.0671 0.43605,-0.61996 0.96899,-1.22853 1.00455,-1.1471 2.31534,-2.7711 2.79624,-3.46441 0.15226,-0.21953 0.32921,-0.45845 0.3932,-0.53095 0.26519,-0.30043 1.14253,-1.62356 1.55027,-2.33798 0.74855,-1.31154 0.79302,-1.38678 0.90471,-1.53014 0.13622,-0.17486 0.57694,-1.04131 0.97228,-1.91154 0.16602,-0.36544 0.3461,-0.75166 0.40017,-0.85825 0.48967,-0.96529 0.8735,-1.82192 0.8735,-1.94945 0,-0.0703 0.0997,-0.31372 0.22148,-0.541 0.12182,-0.22729 0.22149,-0.50819 0.22149,-0.62424 0,-0.11605 0.0922,-0.41579 0.20493,-0.66609 0.31779,-0.70578 0.57719,-1.49963 0.72766,-2.22703 0.0756,-0.36549 0.19079,-0.76416 0.25596,-0.88594 0.0652,-0.12178 0.15247,-0.47059 0.19399,-0.77513 0.0415,-0.30454 0.17103,-0.84045 0.28779,-1.19092 0.11676,-0.35046 0.21228,-0.86755 0.21228,-1.14907 0,-0.28154 0.0992,-0.94164 0.22044,-1.4669 0.48615,-2.10621 0.48743,-9.54171 0.002,-11.88405 -0.12237,-0.59053 -0.22249,-1.29898 -0.22249,-1.57432 0,-0.27535 -0.0997,-0.75349 -0.22148,-1.06254 -0.12182,-0.30905 -0.22149,-0.70165 -0.22149,-0.87244 0,-0.17079 -0.0787,-0.55515 -0.17485,-0.85415 -0.0962,-0.29899 -0.24193,-0.81771 -0.3239,-1.1527 -0.17693,-0.72303 -0.44993,-1.53708 -0.73451,-2.19012 -0.11351,-0.26049 -0.20638,-0.54327 -0.20638,-0.6284 0,-0.14218 -0.57018,-1.6438 -0.77733,-2.04714 -0.0489,-0.0952 -0.21791,-0.45965 -0.37561,-0.809875 -0.15769,-0.35022 -0.41569,-0.92331 -0.57333,-1.27353 -0.15763,-0.35023 -0.33053,-0.71152 -0.3842,-0.80288 -0.0537,-0.0914 -0.19922,-0.36545 -0.32345,-0.60908 -0.12422,-0.24364 -0.44974,-0.79181 -0.72338,-1.21817 -0.27365,-0.42635 -0.55974,-0.89978 -0.63579,-1.05205 -0.38481,-0.77058 -2.89184,-4.22527 -3.6004,-4.96137 -0.82503,-0.85708 -1.76315,-1.958963 -1.93526,-2.273074 -0.10589,-0.193258 -0.30522,-0.442005 -0.44296,-0.552769 -0.13777,-0.110765 -5.55089,-5.467909 -12.02917,-11.904765 -17.48928,-17.37743 -17.05765,-16.958747 -17.4856,-16.961391 -0.42186,-0.0026 -0.22328,-0.188927 -5.43889,5.103151 -3.049145,3.093847 -3.558198,3.657063 -3.558198,3.936793 0,0.286035 1.805624,2.129625 14.590258,14.897034 8.02463,8.013831 14.91417,14.915901 15.31007,15.337941 1.35756,1.44719 2.80718,3.299235 3.48394,4.451125 0.0585,0.0995 0.19898,0.32065 0.31225,0.49142 0.62153,0.93702 2.18389,4.28629 2.18389,4.68167 0,0.087 0.0997,0.34411 0.22148,0.57139 0.12182,0.22728 0.22148,0.52771 0.22148,0.66761 0,0.1399 0.0785,0.43964 0.17455,0.66609 0.096,0.22645 0.22194,0.71073 0.27989,1.07618 0.058,0.36545 0.17717,0.8887 0.26491,1.16279 0.0877,0.27409 0.26343,1.71927 0.3904,3.21152 0.21579,2.53607 0.22011,2.81077 0.0663,4.20819 -0.0905,0.82226 -0.1989,1.96845 -0.24083,2.54707 -0.0419,0.57863 -0.14532,1.22103 -0.22973,1.42756 -0.0844,0.20653 -0.18482,0.65504 -0.22313,0.99667 -0.0383,0.34165 -0.11038,0.7008 -0.16013,0.79812 -0.0498,0.0973 -0.18768,0.5209 -0.30651,0.94131 -0.18903,0.66872 -0.34365,1.10577 -0.93819,2.65194 -0.0713,0.18545 -0.21683,0.47024 -0.32339,0.63286 -0.10656,0.16264 -0.19374,0.34511 -0.19374,0.40552 0,0.21789 -1.0937,2.1909 -1.78716,3.22401 -0.3898,0.58072 -1.09799,1.53981 -1.57374,2.13133 -0.95069,1.18198 -3.87357,4.15231 -4.66833,4.74407 -0.27656,0.20593 -0.89406,0.67341 -1.37222,1.03886 -0.89065,0.68071 -1.10957,0.82288 -2.30319,1.49577 -0.37889,0.21359 -0.75083,0.4503 -0.82657,0.52602 -0.0757,0.0757 -0.1751,0.13768 -0.22083,0.13768 -0.0457,0 -0.54657,0.22054 -1.11296,0.49009 -0.56639,0.26954 -1.1793,0.52659 -1.36203,0.57123 -0.18272,0.0446 -0.43189,0.14312 -0.55371,0.21887 -0.12181,0.0757 -0.3959,0.17242 -0.60908,0.21483 -0.21318,0.0424 -0.49191,0.14301 -0.61941,0.22354 -0.12749,0.0805 -0.51247,0.19829 -0.85549,0.26171 -0.34302,0.0634 -0.76197,0.18531 -0.93098,0.27089 -0.16901,0.0856 -0.63122,0.18922 -1.02712,0.2303 -0.3959,0.0411 -0.99391,0.15797 -1.3289,0.25972 -0.51718,0.15708 -1.18563,0.18563 -4.42969,0.18924 -3.32031,0.004 -3.8931,-0.0205 -4.3743,-0.18489 -0.74448,-0.25432 -1.808744,-0.35688 -2.187154,-0.21079 -0.20876,0.0806 -0.3044,0.19682 -0.30411,0.3695 0,0.18621 2.729704,2.98058 10.465114,10.7142 5.75557,5.75426 10.46468,10.5226 10.46468,10.59631 0,0.17821 -14.12136,14.25739 -14.3485,14.30564 -0.11339,0.0241 -5.978334,-5.77296 -16.363723,-16.1743 z m 18.80746,-23.06704 c 0.7309,-0.0882 1.61525,-0.16139 1.96524,-0.16266 0.34997,-0.001 0.92306,-0.0992 1.27353,-0.21763 0.35047,-0.11842 0.87453,-0.24875 1.16459,-0.28963 0.29007,-0.0409 0.5538,-0.11706 0.58607,-0.16928 0.0323,-0.0522 0.26838,-0.1477 0.52466,-0.21216 0.89166,-0.22426 3.838,-1.55316 4.07399,-1.83751 0.0709,-0.0855 0.18516,-0.15687 0.25384,-0.15867 0.11452,-0.003 1.42129,-0.82793 2.05142,-1.29501 1.64021,-1.21579 2.94879,-2.39855 4.20939,-3.80466 1.39846,-1.55987 2.44368,-2.94773 2.91242,-3.86717 0.0776,-0.15226 0.24128,-0.4278 0.36367,-0.6123 0.20378,-0.30721 0.77451,-1.44155 1.36958,-2.72208 0.13046,-0.28076 0.23722,-0.60542 0.23722,-0.72147 0,-0.11605 0.0961,-0.39037 0.21364,-0.60961 0.11751,-0.21924 0.24606,-0.59226 0.28567,-0.82893 0.0396,-0.23666 0.14498,-0.62362 0.23415,-0.85991 0.0892,-0.23629 0.20664,-0.75954 0.26103,-1.16279 0.0544,-0.40326 0.17593,-1.08203 0.27009,-1.50838 0.13159,-0.59577 0.17054,-1.46729 0.16832,-3.76523 -0.002,-1.64452 -0.0464,-3.18937 -0.0996,-3.433 -0.0532,-0.24363 -0.15356,-0.76689 -0.22301,-1.16279 -0.3609,-2.05732 -0.89222,-3.74406 -1.83144,-5.81396 -0.13818,-0.30454 -0.28399,-0.62846 -0.32403,-0.71982 -0.04,-0.0914 -0.19456,-0.36545 -0.34342,-0.60908 -0.14885,-0.24363 -0.33393,-0.56755 -0.41129,-0.71982 -0.42677,-0.84002 -1.72497,-2.6135 -2.79669,-3.8206 -1.05992,-1.193815 -1.20751,-1.342045 -2.0979,-2.107105 -0.4234,-0.3638 -0.85353,-0.7362 -0.95584,-0.82757 -0.10231,-0.0914 -0.30407,-0.25503 -0.44834,-0.36372 -0.14428,-0.10868 -0.46167,-0.35135 -0.70529,-0.53926 -0.73603,-0.56766 -2.05377,-1.4436 -2.54707,-1.69309 -0.18273,-0.0924 -0.40698,-0.2133 -0.49834,-0.26864 -0.34154,-0.20689 -1.39199,-0.67903 -1.51073,-0.67903 -0.0678,0 -0.18305,-0.072 -0.25609,-0.16003 -0.073,-0.088 -0.4022,-0.21595 -0.73146,-0.2843 -0.32925,-0.0683 -0.62529,-0.16741 -0.65787,-0.22012 -0.0326,-0.0527 -0.34491,-0.15472 -0.69407,-0.22667 -0.34915,-0.072 -0.75942,-0.19406 -0.91169,-0.27133 -0.15227,-0.0773 -0.55094,-0.17677 -0.88594,-0.22113 -0.33499,-0.0443 -0.78349,-0.1529 -0.99667,-0.24121 -0.44119,-0.18277 -3.11489,-0.40618 -4.92802,-0.41178 -1.6922,-0.005 -4.45165,0.22094 -4.98338,0.40846 -0.24363,0.0859 -0.747,0.19001 -1.118614,0.23134 -0.37159,0.0413 -1.09418,0.22814 -1.605751,0.41516 -0.51157,0.18702 -1.129461,0.41166 -1.37309,0.49921 -0.484502,0.1741 -3.089353,1.46826 -3.70986,1.84316 -0.704244,0.42549 -2.362293,1.70065 -3.599112,2.76799 -1.699303,1.46644 -3.502451,3.515505 -4.601413,5.228955 -0.740059,1.15387 -0.757035,1.18216 -0.99721,1.66113 -0.122168,0.24363 -0.265399,0.51772 -0.318297,0.60908 -0.265922,0.45929 -0.672235,1.36747 -0.672235,1.50256 0,0.0843 -0.09948,0.31638 -0.221063,0.5158 -0.121594,0.19943 -0.221262,0.463 -0.221487,0.58572 0,0.12272 -0.0958,0.4011 -0.212392,0.61863 -0.116586,0.21753 -0.247649,0.64038 -0.291237,0.93966 -0.04359,0.29929 -0.146487,0.67671 -0.228663,0.8387 -0.08217,0.162 -0.196703,0.71017 -0.25451,1.21816 -0.05781,0.508 -0.167592,1.07313 -0.243962,1.25585 -0.179776,0.43012 -0.272035,5.72633 -0.114792,6.58915 0.06105,0.335 0.168754,0.95792 0.239327,1.38428 0.07058,0.42636 0.201146,1.0742 0.290149,1.43965 0.089,0.36544 0.227982,0.96345 0.308838,1.3289 0.08085,0.36545 0.227666,0.81395 0.326237,0.99668 0.09857,0.18272 0.179535,0.41341 0.179909,0.51264 0.0013,0.32662 1.303904,3.06419 1.890258,3.97241 0.176952,0.27408 0.383131,0.62292 0.458173,0.7752 0.367276,0.74521 2.210856,3.00379 3.503987,4.29272 1.005906,1.00264 3.113706,2.74643 4.059669,3.35858 1.16677,0.75503 1.350607,0.86015 2.838871,1.62333 0.623572,0.31977 1.187509,0.5814 1.25319,0.5814 0.06568,0 0.293098,0.0924 0.505374,0.20526 0.212276,0.11289 0.585291,0.24116 0.828929,0.28505 0.243629,0.0439 0.545963,0.14602 0.671863,0.22697 0.12589,0.081 0.52456,0.19744 0.88594,0.25885 0.36137,0.0614 0.856374,0.18864 1.100004,0.28272 0.24363,0.0941 0.69213,0.17422 0.99667,0.17808 0.30454,0.004 0.80288,0.0763 1.10742,0.16107 0.75264,0.20943 4.04635,0.21322 5.75858,0.007 z"
       id="path1"
       inkscape:export-filename="moment_logo.svg"
       inkscape:export-xdpi="96"
       inkscape:export-ydpi="96" />
  </g>
</svg>
